<svg width="28" height="28" viewBox="0 0 28 28" fill="none" xmlns="http://www.w3.org/2000/svg">
<path d="M14.2739 10.5837C13.3697 10.5837 12.5026 10.9429 11.8633 11.5822C11.2239 12.2215 10.8648 13.0886 10.8648 13.9928C10.8648 14.8969 11.2239 15.764 11.8633 16.4034C12.5026 17.0427 13.3697 17.4019 14.2739 17.4019C15.178 17.4019 16.0451 17.0427 16.6845 16.4034C17.3238 15.764 17.683 14.8969 17.683 13.9928C17.683 13.0886 17.3238 12.2215 16.6845 11.5822C16.0451 10.9429 15.178 10.5837 14.2739 10.5837ZM14.2739 8.31097C15.7808 8.31097 17.226 8.90959 18.2915 9.97513C19.3571 11.0407 19.9557 12.4859 19.9557 13.9928C19.9557 15.4997 19.3571 16.9449 18.2915 18.0104C17.226 19.076 15.7808 19.6746 14.2739 19.6746C12.7669 19.6746 11.3218 19.076 10.2562 18.0104C9.19066 16.9449 8.59204 15.4997 8.59204 13.9928C8.59204 12.4859 9.19066 11.0407 10.2562 9.97513C11.3218 8.90959 12.7669 8.31097 14.2739 8.31097ZM21.6602 8.02688C21.6602 8.4036 21.5106 8.7649 21.2442 9.03129C20.9778 9.29768 20.6165 9.44733 20.2398 9.44733C19.863 9.44733 19.5017 9.29768 19.2354 9.03129C18.969 8.7649 18.8193 8.4036 18.8193 8.02688C18.8193 7.65015 18.969 7.28885 19.2354 7.02246C19.5017 6.75608 19.863 6.60642 20.2398 6.60642C20.6165 6.60642 20.9778 6.75608 21.2442 7.02246C21.5106 7.28885 21.6602 7.65015 21.6602 8.02688ZM14.2739 4.90188C11.4625 4.90188 11.0034 4.90983 9.69545 4.96779C8.80454 5.00983 8.20681 5.12915 7.65227 5.34506C7.18844 5.51593 6.769 5.78896 6.425 6.14392C6.06963 6.48781 5.7962 6.90726 5.625 7.3712C5.40909 7.92801 5.28977 8.5246 5.24886 9.41438C5.18977 10.6689 5.18182 11.1076 5.18182 13.9928C5.18182 16.8053 5.18977 17.2632 5.24772 18.5712C5.28977 19.461 5.40909 20.0598 5.62386 20.6132C5.81704 21.1076 6.04432 21.4632 6.42159 21.8405C6.80454 22.2223 7.16022 22.4507 7.64886 22.6394C8.21022 22.8564 8.80795 22.9769 9.69431 23.0178C10.9489 23.0769 11.3875 23.0837 14.2727 23.0837C17.0852 23.0837 17.5432 23.0757 18.8511 23.0178C19.7398 22.9757 20.3375 22.8564 20.8932 22.6416C21.357 22.4708 21.7764 22.1977 22.1204 21.8428C22.5034 21.461 22.7318 21.1053 22.9205 20.6155C23.1364 20.0564 23.2568 19.4587 23.2977 18.5701C23.3568 17.3166 23.3636 16.8769 23.3636 13.9928C23.3636 11.1814 23.3557 10.7223 23.2977 9.41438C23.2557 8.52574 23.1352 7.92574 22.9205 7.3712C22.7496 6.90737 22.4765 6.48792 22.1216 6.14392C21.7777 5.78855 21.3582 5.51513 20.8943 5.34392C20.3375 5.12801 19.7398 5.0087 18.8511 4.96779C17.5977 4.9087 17.1591 4.90188 14.2727 4.90188M14.2727 2.62915C17.3602 2.62915 17.7454 2.64051 18.9579 2.69733C20.167 2.75415 20.992 2.94392 21.7159 3.22574C22.4659 3.51438 23.0977 3.90529 23.7295 4.53597C24.3076 5.10385 24.7547 5.79105 25.0398 6.5496C25.3204 7.27347 25.5114 8.09847 25.5682 9.30869C25.6216 10.5201 25.6364 10.9053 25.6364 13.9928C25.6364 17.0803 25.625 17.4655 25.5682 18.6769C25.5114 19.8882 25.3204 20.711 25.0398 21.436C24.7547 22.1945 24.3076 22.8817 23.7295 23.4496C23.1617 24.0277 22.4745 24.4748 21.7159 24.7598C20.992 25.0405 20.167 25.2314 18.9579 25.2882C17.7454 25.3416 17.3602 25.3564 14.2727 25.3564C11.1852 25.3564 10.8 25.3451 9.5875 25.2882C8.37841 25.2314 7.55454 25.0405 6.82954 24.7598C6.07099 24.4748 5.38378 24.0277 4.81591 23.4496C4.23785 22.8817 3.7907 22.1945 3.50568 21.436C3.22386 20.7121 3.03409 19.8871 2.97727 18.6769C2.92272 17.4655 2.90909 17.0803 2.90909 13.9928C2.90909 10.9053 2.92045 10.5201 2.97727 9.30869C3.03409 8.09733 3.22386 7.2746 3.50568 6.5496C3.7907 5.79105 4.23785 5.10385 4.81591 4.53597C5.38378 3.95791 6.07099 3.51076 6.82954 3.22574C7.55341 2.94392 8.37727 2.75415 9.5875 2.69733C10.8011 2.64392 11.1864 2.62915 14.2739 2.62915" fill="#1E1F4B"/>
</svg>
