<?xml version="1.0" encoding="UTF-8"?>
<svg id="Capa_2" data-name="Capa 2" xmlns="http://www.w3.org/2000/svg" viewBox="0 0 1000.89 157.04">
  <defs>
    <style>
      .cls-1 {
        fill: #d38812;
      }

      .cls-2 {
        fill: #3b4385;
      }

      .cls-3 {
        fill: #22224a;
        stroke: #22224a;
        stroke-miterlimit: 10;
        stroke-width: 2px;
      }

      .cls-4 {
        fill: #4d4093;
      }
    </style>
  </defs>
  <g id="Capa_1-2" data-name="Capa 1">
    <g>
      <path class="cls-1" d="M67.35,33.68c-28.64,2.78-30.9,5.03-33.68,33.68-2.78-28.64-5.03-30.9-33.68-33.68C28.64,30.9,30.9,28.64,33.68,0c2.78,28.64,5.03,30.9,33.68,33.68Z"/>
      <g>
        <path class="cls-4" d="M78.23,39.39c4.25,0,7.75.63,10.48,1.88,2.74,1.26,5.17,2.72,7.29,4.4,1.29.97,2.27,1.08,2.95.34.68-.74,1.14-2.5,1.4-5.27h2.22c-.13,2.38-.23,5.28-.29,8.7-.06,3.42-.1,7.92-.1,13.53h-2.22c-.45-2.77-.87-4.98-1.26-6.62-.39-1.64-.85-3.04-1.4-4.2-.55-1.16-1.27-2.32-2.17-3.48-2-2.64-4.51-4.56-7.54-5.75-3.03-1.19-6.22-1.79-9.57-1.79-3.16,0-6.01.79-8.55,2.37-2.55,1.58-4.73,3.85-6.57,6.81-1.84,2.96-3.25,6.54-4.25,10.73-1,4.19-1.5,8.89-1.5,14.11s.55,10.19,1.64,14.35c1.1,4.15,2.62,7.65,4.59,10.48,1.96,2.84,4.28,4.98,6.96,6.43,2.67,1.45,5.56,2.17,8.65,2.17,2.9,0,5.93-.58,9.08-1.74,3.16-1.16,5.64-3.03,7.44-5.6,1.42-1.87,2.4-3.9,2.95-6.09.55-2.19,1.05-5.25,1.5-9.18h2.22c0,5.86.03,10.58.1,14.16.06,3.57.16,6.59.29,9.03h-2.22c-.26-2.77-.69-4.51-1.3-5.22-.61-.71-1.63-.61-3.04.29-2.38,1.68-4.91,3.14-7.58,4.4-2.67,1.26-6.1,1.88-10.29,1.88-6.12,0-11.48-1.38-16.09-4.16-4.61-2.77-8.18-6.76-10.73-11.98-2.55-5.22-3.82-11.5-3.82-18.84s1.32-13.53,3.96-18.94c2.64-5.41,6.26-9.63,10.87-12.66,4.6-3.03,9.9-4.54,15.9-4.54Z"/>
        <path class="cls-4" d="M154.66,58.03c4.12,0,7.83.9,11.11,2.71,3.29,1.8,5.91,4.64,7.87,8.5,1.96,3.86,2.95,8.89,2.95,15.07s-.98,11.19-2.95,15.03c-1.97,3.83-4.59,6.65-7.87,8.46-3.29,1.8-6.99,2.71-11.11,2.71s-7.75-.9-11.06-2.71c-3.32-1.8-5.96-4.62-7.92-8.46-1.97-3.83-2.95-8.84-2.95-15.03s.98-11.21,2.95-15.07c1.96-3.86,4.61-6.7,7.92-8.5,3.32-1.8,7.01-2.71,11.06-2.71ZM154.66,59.97c-3.67,0-6.68,1.9-9.03,5.7-2.35,3.8-3.53,10.02-3.53,18.65s1.17,14.83,3.53,18.6c2.35,3.77,5.36,5.65,9.03,5.65s6.68-1.88,9.03-5.65c2.35-3.77,3.53-9.97,3.53-18.6s-1.18-14.85-3.53-18.65c-2.35-3.8-5.36-5.7-9.03-5.7Z"/>
        <path class="cls-4" d="M227.13,33.59c1.8,0,3.4.24,4.78.72,1.38.48,2.59,1.11,3.62,1.88.97.77,1.71,1.68,2.22,2.71.51,1.03.77,2.13.77,3.29,0,1.48-.48,2.71-1.45,3.67-.97.97-2.19,1.45-3.67,1.45s-2.66-.47-3.72-1.4c-1.06-.93-1.59-2.21-1.59-3.82,0-1.35.37-2.45,1.11-3.29.74-.84,1.72-1.38,2.95-1.64-.19-.58-.69-1.08-1.5-1.5-.81-.42-1.88-.63-3.24-.63-1.48,0-2.75.32-3.82.97-1.06.64-1.88,1.51-2.46,2.61-.77,1.35-1.26,3.37-1.45,6.04-.19,2.67-.29,6.78-.29,12.32v2.51h10.34v1.93h-10.34v37.78c0,3.16.92,5.27,2.75,6.33,1.84,1.06,4.33,1.59,7.49,1.59v2.03c-1.48-.06-3.58-.14-6.28-.24-2.71-.1-5.57-.14-8.6-.14-2.19,0-4.36.05-6.52.14-2.16.1-3.79.18-4.88.24v-2.03c2.64,0,4.53-.48,5.65-1.45,1.13-.97,1.69-2.8,1.69-5.51v-38.75h-7.73v-1.93h7.73c0-3.8.16-6.99.48-9.57.32-2.58.84-4.78,1.55-6.62.71-1.84,1.67-3.46,2.9-4.88,1.29-1.48,2.93-2.66,4.93-3.53,2-.87,4.19-1.3,6.57-1.3Z"/>
        <path class="cls-4" d="M278.53,33.59c1.8,0,3.4.24,4.78.72,1.38.48,2.59,1.11,3.62,1.88.97.77,1.71,1.68,2.22,2.71.52,1.03.77,2.13.77,3.29,0,1.48-.48,2.71-1.45,3.67s-2.19,1.45-3.67,1.45-2.66-.47-3.72-1.4c-1.06-.93-1.59-2.21-1.59-3.82,0-1.35.37-2.45,1.11-3.29.74-.84,1.72-1.38,2.95-1.64-.19-.58-.69-1.08-1.5-1.5-.81-.42-1.88-.63-3.24-.63-1.48,0-2.75.32-3.82.97-1.06.64-1.88,1.51-2.46,2.61-.77,1.35-1.26,3.37-1.45,6.04-.19,2.67-.29,6.78-.29,12.32v2.51h10.34v1.93h-10.34v37.78c0,3.16.92,5.27,2.75,6.33s4.33,1.59,7.49,1.59v2.03c-1.48-.06-3.57-.14-6.28-.24-2.71-.1-5.57-.14-8.6-.14-2.19,0-4.37.05-6.52.14-2.16.1-3.78.18-4.88.24v-2.03c2.64,0,4.53-.48,5.65-1.45,1.13-.97,1.69-2.8,1.69-5.51v-38.75h-7.73v-1.93h7.73c0-3.8.16-6.99.48-9.57.32-2.58.84-4.78,1.55-6.62.71-1.84,1.67-3.46,2.9-4.88,1.29-1.48,2.93-2.66,4.93-3.53,2-.87,4.19-1.3,6.57-1.3Z"/>
        <path class="cls-4" d="M329.55,58.03c5.67,0,10.1,1.73,13.29,5.17,3.19,3.45,4.78,8.81,4.78,16.09h-34.11l-.1-1.84h24.93c.13-3.16-.13-6.07-.77-8.75-.64-2.67-1.66-4.81-3.04-6.43-1.39-1.61-3.17-2.42-5.36-2.42-2.96,0-5.59,1.48-7.87,4.44-2.29,2.96-3.66,7.67-4.11,14.11l.29.39c-.13.97-.23,2.03-.29,3.19-.06,1.16-.1,2.32-.1,3.48,0,4.38.71,8.15,2.13,11.3,1.42,3.16,3.27,5.56,5.56,7.2,2.29,1.64,4.65,2.46,7.1,2.46,1.93,0,3.77-.31,5.51-.92,1.74-.61,3.35-1.63,4.83-3.04,1.48-1.42,2.77-3.32,3.86-5.7l1.93.77c-.71,2.13-1.87,4.19-3.48,6.18-1.61,2-3.64,3.62-6.09,4.88-2.45,1.26-5.28,1.88-8.5,1.88-4.64,0-8.62-1.06-11.93-3.19-3.32-2.13-5.86-5.07-7.63-8.84-1.77-3.77-2.66-8.1-2.66-13,0-5.67.9-10.55,2.71-14.64,1.8-4.09,4.35-7.25,7.63-9.47,3.29-2.22,7.12-3.33,11.5-3.33Z"/>
        <path class="cls-4" d="M397.77,58.03c5.67,0,10.1,1.73,13.29,5.17,3.19,3.45,4.78,8.81,4.78,16.09h-34.11l-.1-1.84h24.93c.13-3.16-.13-6.07-.77-8.75-.64-2.67-1.66-4.81-3.04-6.43-1.39-1.61-3.17-2.42-5.36-2.42-2.96,0-5.59,1.48-7.87,4.44-2.29,2.96-3.66,7.67-4.11,14.11l.29.39c-.13.97-.23,2.03-.29,3.19-.06,1.16-.1,2.32-.1,3.48,0,4.38.71,8.15,2.13,11.3,1.42,3.16,3.27,5.56,5.56,7.2,2.29,1.64,4.65,2.46,7.1,2.46,1.93,0,3.77-.31,5.51-.92,1.74-.61,3.35-1.63,4.83-3.04,1.48-1.42,2.77-3.32,3.86-5.7l1.93.77c-.71,2.13-1.87,4.19-3.48,6.18-1.61,2-3.64,3.62-6.09,4.88-2.45,1.26-5.28,1.88-8.5,1.88-4.64,0-8.62-1.06-11.93-3.19-3.32-2.13-5.86-5.07-7.63-8.84-1.77-3.77-2.66-8.1-2.66-13,0-5.67.9-10.55,2.71-14.64,1.8-4.09,4.35-7.25,7.63-9.47,3.29-2.22,7.12-3.33,11.5-3.33Z"/>
      </g>
      <g>
        <path class="cls-3" d="M442.6,84.85v-.1c0-7.97,6.04-12.9,11.98-12.9,4.93,0,8.07,2.8,10.15,5.89v-5.31h2.37v24.64h-2.37v-5.51c-2.17,3.24-5.22,6.09-10.15,6.09-5.94,0-11.98-4.78-11.98-12.8ZM464.88,84.8v-.1c0-6.33-4.88-10.58-10.05-10.58s-9.66,3.96-9.66,10.53v.1c0,6.47,4.44,10.63,9.66,10.63s10.05-4.3,10.05-10.58Z"/>
        <path class="cls-3" d="M477.39,90.74v-16.14h-3.58v-2.17h3.58v-7.88h2.37v7.88h8.65v2.17h-8.65v15.9c0,3.53,2.03,4.78,4.93,4.78,1.21,0,2.22-.24,3.62-.87v2.22c-1.3.58-2.46.87-4.01.87-3.86,0-6.91-2.08-6.91-6.76Z"/>
      </g>
      <g>
        <path class="cls-2" d="M517.5,39.43h1.72c1.18,0,2.26.62,2.87,1.62l18.33,30.51c1.3,2.16,4.44,2.16,5.74,0l18.33-30.51c.61-1.01,1.69-1.62,2.87-1.62h1.72c1.85,0,3.35,1.5,3.35,3.35v60.94c0,1.85-1.5,3.35-3.35,3.35h-.17c-1.85,0-3.35-1.5-3.35-3.35v-39.55c0-3.38-4.44-4.63-6.2-1.75l-13.6,22.51c-1,1.65-3.38,1.68-4.42.05l-14.28-22.49c-1.77-2.88-6.2-1.63-6.2,1.75v39.48c0,1.85-1.5,3.35-3.35,3.35h0c-1.85,0-3.35-1.5-3.35-3.35v-60.94c0-1.85,1.5-3.35,3.35-3.35Z"/>
        <path class="cls-2" d="M594.03,39.43h.17c1.85,0,3.35,1.5,3.35,3.35v60.94c0,1.85-1.5,3.35-3.35,3.35h-.17c-1.85,0-3.35-1.5-3.35-3.35v-60.94c0-1.85,1.5-3.35,3.35-3.35Z"/>
        <path class="cls-2" d="M615.81,42.77c0-1.85,1.5-3.35,3.35-3.35h17.78c19.13,0,32.35,14.59,32.35,33.62v.19c0,19.03-13.22,33.82-32.35,33.82h-17.78c-1.85,0-3.35-1.5-3.35-3.35v-60.94ZM622.68,49.83v46.83c0,1.85,1.5,3.35,3.35,3.35h10.91c15.39,0,25.22-11.5,25.22-26.57v-.19c0-14.98-9.83-26.76-25.22-26.76h-10.91c-1.85,0-3.35,1.5-3.35,3.35Z"/>
        <path class="cls-2" d="M687.6,39.43h1.35c1.09,0,2.11.53,2.73,1.41l31.27,44.2c1.89,2.66,6.08,1.33,6.08-1.93v-40.33c0-1.85,1.5-3.35,3.35-3.35h0c1.85,0,3.35,1.5,3.35,3.35v60.94c0,1.85-1.5,3.35-3.35,3.35h-.4c-1.09,0-2.1-.53-2.73-1.41l-32.23-45.47c-1.89-2.66-6.08-1.33-6.08,1.94v41.6c0,1.85-1.5,3.35-3.35,3.35h0c-1.85,0-3.35-1.5-3.35-3.35v-60.94c0-1.85,1.5-3.35,3.35-3.35Z"/>
        <path class="cls-2" d="M757.34,39.43h.17c1.85,0,3.35,1.5,3.35,3.35v60.94c0,1.85-1.5,3.35-3.35,3.35h-.17c-1.85,0-3.35-1.5-3.35-3.35v-60.94c0-1.85,1.5-3.35,3.35-3.35Z"/>
        <path class="cls-2" d="M776.43,73.44v-.19c0-18.55,12.26-34.98,30.52-34.98,8.9,0,14.86,2.47,20.25,6.85,1.4,1.14,1.63,3.19.54,4.63l-.34.44c-1.15,1.5-3.29,1.75-4.76.56-4.07-3.28-8.96-5.43-15.95-5.43-13.48,0-23.13,12.66-23.13,27.73v.19c0,16.14,9.3,28.12,24.09,28.12,6.3,0,12.17-2.46,16.32-5.72.8-.62,1.24-1.59,1.24-2.6v-11.91c0-1.85-1.5-3.35-3.35-3.35h-11.83c-1.85,0-3.35-1.5-3.35-3.35v-.16c0-1.85,1.5-3.35,3.35-3.35h18.44c1.85,0,3.35,1.5,3.35,3.35v22.19c0,.93-.39,1.82-1.07,2.46-5.62,5.22-13.65,9.3-23.37,9.3-19.13,0-30.96-15.46-30.96-34.78Z"/>
        <path class="cls-2" d="M851.09,39.43h.17c1.85,0,3.35,1.5,3.35,3.35v23.35c0,1.85,1.5,3.35,3.35,3.35h28.44c1.85,0,3.35-1.5,3.35-3.35v-23.35c0-1.85,1.5-3.35,3.35-3.35h.17c1.85,0,3.35,1.5,3.35,3.35v60.94c0,1.85-1.5,3.35-3.35,3.35h-.17c-1.85,0-3.35-1.5-3.35-3.35v-23.74c0-1.85-1.5-3.35-3.35-3.35h-28.44c-1.85,0-3.35,1.5-3.35,3.35v23.74c0,1.85-1.5,3.35-3.35,3.35h-.17c-1.85,0-3.35-1.5-3.35-3.35v-60.94c0-1.85,1.5-3.35,3.35-3.35Z"/>
        <path class="cls-2" d="M926.75,46.48h-13.83c-1.85,0-3.35-1.5-3.35-3.35v-.36c0-1.85,1.5-3.35,3.35-3.35h41.22c1.85,0,3.35,1.5,3.35,3.35v.36c0,1.85-1.5,3.35-3.35,3.35h-13.83c-1.85,0-3.35,1.5-3.35,3.35v53.89c0,1.85-1.5,3.35-3.35,3.35h-.17c-1.85,0-3.35-1.5-3.35-3.35v-53.89c0-1.85-1.5-3.35-3.35-3.35Z"/>
      </g>
      <path class="cls-1" d="M1000.89,123.36c-28.64,2.78-30.9,5.03-33.68,33.68-2.78-28.64-5.03-30.9-33.68-33.68,28.64-2.78,30.9-5.03,33.68-33.68,2.78,28.64,5.03,30.9,33.68,33.68Z"/>
    </g>
  </g>
</svg>